<svg xml:space="preserve" style="enable-background:new 0 0 10300 1000;" viewBox="0 0 10300 1000" y="0px" x="0px" xmlns:xlink="http://www.w3.org/1999/xlink" xmlns="http://www.w3.org/2000/svg" id="Layer_1" version="1.1">
<style type="text/css">
	.st0{fill:#FFFFFF;}
	.st1{fill:#F4E6D7;}
	.st2{fill:#0A1419;}
</style>
<path d="M5772.26,0c-276.07,0-499.87,223.86-499.87,500c0,276.14,223.8,500,499.87,500
	c276.07,0,499.87-223.86,499.87-500S6048.33,0,5772.26,0z M5772.26,956.46c-226.81,0-410.67-204.36-410.67-456.46
	c0-252.1,183.86-456.46,410.67-456.46c226.81,0,410.68,204.36,410.68,456.46C6182.94,752.1,5999.07,956.46,5772.26,956.46z
	 M6047.97,342.57c-29.1,0-55.12,26.01-55.12,57.87c0,104.62-34.63,174.61-78.48,234.97c-6.93,9.54-13.75,4.59-12.59-5.72
	c16.64-147.47,39.57-287.11-42.38-287.11c-29.1,0-49.96,18.28-60.93,46.6c-1.9,4.89-4.39,10.43-8.94,10.43
	c-3.92,0-5.48-5.72-6.77-11.06c-6.74-27.88-30.35-45.97-59.86-45.97c-79.73,0-109.7,97.05-127.8,97.05c-2.89,0-5.11-2.46-2.44-9.63
	c10.58-28.37,42.07-112.78,51.21-137.27c16.7-44.76,12.39-69.39-36.71-69.39c-47.94,0-85.71,22.75-92.03,40.52
	c-3.81,10.71,2.35,20.62,14.25,24.87c13.81,4.92,18.2,9.18,12.75,24.49c-15.12,42.48-57.53,161.69-76.13,213.98
	c-25.06,70.43,5.86,148.82,94.74,148.82c85.77,0,164.96-60.53,205.16-157.3c25.93-62.42,15.78-93.84,39.77-93.84
	c27.77,0,14.3,58.36,13.17,223.13c-0.15,21.71,9.58,28.01,18.61,28.01c18.92,0,31.89-15.15,37.19-5.74
	c5.74,10.21-57.27,60.9-107.72,60.9c-47.06,0-57.97-25.54-87.01-25.54s-50.97,20.39-50.97,45.69c0,29.05,26.64,59.3,76.91,59.3
	c202.11,0,395.35-272.07,395.35-410.17C6101.2,367.87,6081.5,342.57,6047.97,342.57z M5582.85,620.84
	c-12.6,0-29.83-8.33-29.83-32.32c0-43.71,60.75-140.98,109.06-140.98c15.6,0,26.73,9.86,26.73,30.26
	C5688.82,535.2,5627.85,620.84,5582.85,620.84z M9676.99,204.1v196.09h604.83v178.44h-604.83v217.22H10300v178.44h-813.48V25.66
	H10300V204.1H9676.99z M9384.13,974.28h-213.91l-215.77-395.66h-283.1v395.66h-190.46V25.66h190.46v374.52h262.83l213.29-374.52
	h213.61L9110,466.61l-1.39,2.48L9384.13,974.28z M8042.91,204.1v591.74h300.13v178.44h-790.8V795.84h300.13V204.1h-300.13V25.66
	h790.8V204.1H8042.91z M7309.61,471.56c0,0,121.51-48.36,121.51-194.46c0-159.78-111.21-251.44-305.16-251.44h-565.74v948.62h615.97
	c139.93,0,290.53-83.53,290.53-267.08C7466.72,510.79,7309.61,471.56,7309.61,471.56z M6750.76,204.1h377.76
	c59.68-0.66,108.29,37.9,108.58,98c0,36.54-23.37,98.08-111.14,98.08h-375.2V204.1z M7150.26,795.84h-399.5V578.62h399.5
	c72.13,0,118.8,42.65,118.8,108.61C7269.06,753.27,7222.39,795.84,7150.26,795.84z M1922.83,301.72
	c0-170.23-116.94-276.06-305.16-276.06h-577.89v948.62h190.54V578.62h244.1l218.33,395.66h210.9l-218.39-395.66
	C1685.25,578.62,1922.83,552.63,1922.83,301.72z M1230.32,400.19V204.1h387.35c60.63-1.27,110.87,36.66,111.06,98
	c0,36.54-23.37,98.08-111.06,98.08H1230.32z M2262.82,204.1v196.09h604.83v178.44h-604.83v217.22h623.01v178.44h-813.48V25.66
	h813.48V204.1H2262.82z M749.4,471.56c0,0,121.51-48.36,121.51-194.46c0-159.78-111.21-251.44-305.16-251.44H0v948.62h615.97
	c139.93,0,290.53-83.53,290.53-267.07C906.51,510.79,749.4,471.56,749.4,471.56z M190.54,204.1H568.3
	c59.68-0.66,108.29,37.9,108.58,98c0,36.54-23.37,98.08-111.14,98.08h-375.2V204.1z M590.04,795.84h-399.5V578.62h399.5
	c72.13,0,118.8,42.65,118.8,108.61C708.84,753.27,662.18,795.84,590.04,795.84z M4544.21,25.66H4134.1v948.62h410.11
	c366.77,0,483.4-286.58,483.4-474.31S4910.98,25.66,4544.21,25.66z M4544.21,795.84h-219.64V204.1h219.64
	c196.65,0,284.65,148.63,284.65,295.87S4740.87,795.77,4544.21,795.84z M3799.23,974.28h203.62L3724.46,25.66h-446.79
	l-278.38,948.62h203.62l75.02-255.67h446.27L3799.23,974.28z M3330.29,540.17l98.61-336.07h144.34l98.61,336.07H3330.29z" class="st2"></path>
</svg>
