<svg xml:space="preserve" style="enable-background:new 0 0 1000 1000;" viewBox="0 0 1000 1000" y="0px" x="0px" xmlns:xlink="http://www.w3.org/1999/xlink" xmlns="http://www.w3.org/2000/svg" id="Layer_1" version="1.1">
<style type="text/css">
	.st0{fill:#FFFFFF;}
	.st1{fill:#F4E6D7;}
	.st2{fill:#0A1419;}
</style>
<g>
	<g>
		<g>
			<g>
				<g>
					<path d="M500,0C223.86,0,0,223.86,0,500s223.86,500,500,500c276.14,0,500-223.86,500-500
						C1000,223.86,776.14,0,500,0z M500,956.46C273.13,956.46,89.22,752.1,89.22,500C89.22,247.9,273.13,43.54,500,43.54
						c226.87,0,410.78,204.36,410.78,456.46C910.78,752.1,726.87,956.46,500,956.46z" class="st2"></path>
				</g>
			</g>
		</g>
	</g>
	<path d="M775.78,342.57c-29.11,0-55.13,26.01-55.13,57.87c0,104.62-34.64,174.61-78.5,234.97
		c-6.93,9.54-13.76,4.59-12.59-5.72c16.65-147.47,39.58-287.11-42.39-287.11c-29.11,0-49.97,18.28-60.95,46.6
		c-1.9,4.89-4.39,10.43-8.94,10.43c-3.92,0-5.48-5.72-6.78-11.06c-6.74-27.88-30.35-45.97-59.88-45.97
		c-79.75,0-109.73,97.05-127.83,97.05c-2.89,0-5.11-2.46-2.44-9.63c10.59-28.37,42.08-112.78,51.22-137.27
		c16.7-44.76,12.4-69.39-36.72-69.39c-47.96,0-85.73,22.75-92.06,40.52c-3.81,10.71,2.35,20.62,14.26,24.87
		c13.82,4.92,18.2,9.18,12.75,24.49c-15.12,42.48-57.54,161.69-76.15,213.98c-25.07,70.43,5.86,148.82,94.77,148.82
		c85.79,0,165-60.53,205.22-157.3c25.94-62.42,15.78-93.84,39.78-93.84c27.78,0,14.31,58.36,13.17,223.13
		c-0.15,21.71,9.58,28.01,18.62,28.01c18.93,0,31.9-15.15,37.2-5.74c5.74,10.21-57.29,60.9-107.75,60.9
		c-47.07,0-57.99-25.54-87.03-25.54c-29.05,0-50.98,20.39-50.98,45.69c0,29.05,26.64,59.3,76.93,59.3
		c202.16,0,395.45-272.07,395.45-410.17C829.02,367.87,809.32,342.57,775.78,342.57z M310.54,620.84
		c-12.61,0-29.84-8.33-29.84-32.32c0-43.71,60.77-140.98,109.09-140.98c15.61,0,26.74,9.86,26.74,30.26
		C416.53,535.2,355.55,620.84,310.54,620.84z" class="st2"></path>
</g>
</svg>
